<?xml version="1.0" encoding="UTF-8" standalone="no"?>
<!-- Created with Inkscape (http://www.inkscape.org/) -->

<svg
   width="280mm"
   height="180mm"
   viewBox="0 0 280 180"
   version="1.1"
   id="svg1"
   xml:space="preserve"
   inkscape:version="1.3.2 (091e20ef0f, 2023-11-25, custom)"
   sodipodi:docname="campaign poster.svg"
   xmlns:inkscape="http://www.inkscape.org/namespaces/inkscape"
   xmlns:sodipodi="http://sodipodi.sourceforge.net/DTD/sodipodi-0.dtd"
   xmlns="http://www.w3.org/2000/svg"
   xmlns:svg="http://www.w3.org/2000/svg"><sodipodi:namedview
     id="namedview1"
     pagecolor="#ffffff"
     bordercolor="#000000"
     borderopacity="0.25"
     inkscape:showpageshadow="2"
     inkscape:pageopacity="0.0"
     inkscape:pagecheckerboard="0"
     inkscape:deskcolor="#d1d1d1"
     inkscape:document-units="mm"
     inkscape:zoom="1.1639318"
     inkscape:cx="511.62792"
     inkscape:cy="306.28942"
     inkscape:window-width="2560"
     inkscape:window-height="1371"
     inkscape:window-x="1152"
     inkscape:window-y="32"
     inkscape:window-maximized="1"
     inkscape:current-layer="layer1" /><defs
     id="defs1" /><g
     inkscape:label="Layer 1"
     inkscape:groupmode="layer"
     id="layer1"
     transform="translate(35.403313,-58.272259)"><rect
       style="display:inline;fill:#1e2492;fill-opacity:1;stroke:none;stroke-width:4.56074;stroke-linecap:round;stroke-linejoin:round;paint-order:stroke fill markers"
       id="rect1"
       width="280"
       height="180"
       x="-35.403313"
       y="58.272259" /><path
       id="rect6"
       style="color:#000000;display:inline;fill:#ae1e28;stroke-width:0.995374;stroke-linecap:square;-inkscape-stroke:none;paint-order:stroke fill markers"
       d="m -19.966525,73.62747 v 150 h 86.076379 v -2.12471 H -17.876333 V 75.752183 H 66.109854 V 73.62747 Z m 163.860875,0 v 2.124713 h 84.04894 V 221.50276 h -84.04894 v 2.12471 h 86.13913 v -150 z" /><g
       id="g2"
       transform="translate(-0.07340548,73.93133)"
       style="display:inline"><path
         d="m 75.469425,145.12747 c -1.968082,0 -3.686806,1.19809 -4.643399,2.22317 l -1.910336,-1.44486 c -0.265344,-0.20086 -0.661504,0.0126 -0.593684,0.3207 l 0.528923,2.401 -0.529158,2.40121 c -0.06789,0.30757 0.328339,0.52128 0.593683,0.32068 l 1.910345,-1.44483 c 0.956603,1.02484 2.675544,2.22293 4.643626,2.22293 3.006943,0 5.44468,-2.79999 5.44468,-3.49999 0,-0.7 -2.437737,-3.50001 -5.44468,-3.50001 z m 1.912526,4.025 c -0.28983,0 -0.524993,-0.23516 -0.524993,-0.52499 0,-0.29008 0.235163,-0.525 0.524993,-0.525 0.290075,0 0.525003,0.23492 0.525003,0.525 0,0.28983 -0.235163,0.52499 -0.525003,0.52499 z"
         id="path1"
         style="fill:#ffffff;fill-opacity:1;stroke:none;stroke-width:0.021875" /><path
         d="m 90.71582,145.12747 c -1.968082,0 -3.686806,1.19809 -4.643399,2.22317 l -1.910336,-1.44486 c -0.265344,-0.20086 -0.661504,0.0126 -0.593684,0.3207 l 0.528923,2.401 -0.529158,2.40121 c -0.06789,0.30757 0.328339,0.52128 0.593683,0.32068 l 1.910345,-1.44483 c 0.956603,1.02484 2.675544,2.22293 4.643626,2.22293 3.006943,0 5.44468,-2.79999 5.44468,-3.49999 0,-0.7 -2.437737,-3.50001 -5.44468,-3.50001 z m 1.912526,4.025 c -0.28983,0 -0.524993,-0.23516 -0.524993,-0.52499 0,-0.29008 0.235163,-0.525 0.524993,-0.525 0.290075,0 0.525003,0.23492 0.525003,0.525 0,0.28983 -0.235163,0.52499 -0.525003,0.52499 z"
         id="path1-6"
         style="fill:#ffffff;fill-opacity:1;stroke:none;stroke-width:0.021875" /><path
         d="m 105.96222,145.12747 c -1.96808,0 -3.68681,1.19809 -4.6434,2.22317 l -1.910339,-1.44486 c -0.265344,-0.20086 -0.661504,0.0126 -0.593684,0.3207 l 0.528923,2.401 -0.529158,2.40121 c -0.06789,0.30757 0.328339,0.52128 0.593683,0.32068 l 1.910345,-1.44483 c 0.9566,1.02484 2.67555,2.22293 4.64363,2.22293 3.00694,0 5.44468,-2.79999 5.44468,-3.49999 0,-0.7 -2.43774,-3.50001 -5.44468,-3.50001 z m 1.91252,4.025 c -0.28983,0 -0.52499,-0.23516 -0.52499,-0.52499 0,-0.29008 0.23516,-0.525 0.52499,-0.525 0.29008,0 0.52501,0.23492 0.52501,0.525 0,0.28983 -0.23517,0.52499 -0.52501,0.52499 z"
         id="path1-4"
         style="fill:#ffffff;fill-opacity:1;stroke:none;stroke-width:0.021875" /><path
         d="m 121.20861,145.12747 c -1.96808,0 -3.68681,1.19809 -4.6434,2.22317 l -1.91034,-1.44486 c -0.26534,-0.20086 -0.6615,0.0126 -0.59368,0.3207 l 0.52892,2.401 -0.52915,2.40121 c -0.0679,0.30757 0.32833,0.52128 0.59368,0.32068 l 1.91034,-1.44483 c 0.95661,1.02484 2.67555,2.22293 4.64363,2.22293 3.00694,0 5.44468,-2.79999 5.44468,-3.49999 0,-0.7 -2.43774,-3.50001 -5.44468,-3.50001 z m 1.91252,4.025 c -0.28983,0 -0.52499,-0.23516 -0.52499,-0.52499 0,-0.29008 0.23516,-0.525 0.52499,-0.525 0.29008,0 0.52501,0.23492 0.52501,0.525 0,0.28983 -0.23517,0.52499 -0.52501,0.52499 z"
         id="path1-69"
         style="fill:#ffffff;fill-opacity:1;stroke:none;stroke-width:0.021875" /><path
         d="m 136.45501,145.12747 c -1.96808,0 -3.68681,1.19809 -4.6434,2.22317 l -1.91034,-1.44486 c -0.26534,-0.20086 -0.6615,0.0126 -0.59368,0.3207 l 0.52892,2.401 -0.52915,2.40121 c -0.0679,0.30757 0.32833,0.52128 0.59368,0.32068 l 1.91034,-1.44483 c 0.95661,1.02484 2.67555,2.22293 4.64363,2.22293 3.00694,0 5.44468,-2.79999 5.44468,-3.49999 0,-0.7 -2.43774,-3.50001 -5.44468,-3.50001 z m 1.91252,4.025 c -0.28983,0 -0.52499,-0.23516 -0.52499,-0.52499 0,-0.29008 0.23516,-0.525 0.52499,-0.525 0.29008,0 0.52501,0.23492 0.52501,0.525 0,0.28983 -0.23517,0.52499 -0.52501,0.52499 z"
         id="path1-5"
         style="fill:#ffffff;fill-opacity:1;stroke:none;stroke-width:0.021875" /></g><g
       id="g6"
       transform="matrix(-1,0,0,1,210.14036,-73.969922)"><path
         d="m 75.469425,145.12747 c -1.968082,0 -3.686806,1.19809 -4.643399,2.22317 l -1.910336,-1.44486 c -0.265344,-0.20086 -0.661504,0.0126 -0.593684,0.3207 l 0.528923,2.401 -0.529158,2.40121 c -0.06789,0.30757 0.328339,0.52128 0.593683,0.32068 l 1.910345,-1.44483 c 0.956603,1.02484 2.675544,2.22293 4.643626,2.22293 3.006943,0 5.44468,-2.79999 5.44468,-3.49999 0,-0.7 -2.437737,-3.50001 -5.44468,-3.50001 z m 1.912526,4.025 c -0.28983,0 -0.524993,-0.23516 -0.524993,-0.52499 0,-0.29008 0.235163,-0.525 0.524993,-0.525 0.290075,0 0.525003,0.23492 0.525003,0.525 0,0.28983 -0.235163,0.52499 -0.525003,0.52499 z"
         id="path2"
         style="fill:#ffffff;fill-opacity:1;stroke:none;stroke-width:0.021875" /><path
         d="m 90.71582,145.12747 c -1.968082,0 -3.686806,1.19809 -4.643399,2.22317 l -1.910336,-1.44486 c -0.265344,-0.20086 -0.661504,0.0126 -0.593684,0.3207 l 0.528923,2.401 -0.529158,2.40121 c -0.06789,0.30757 0.328339,0.52128 0.593683,0.32068 l 1.910345,-1.44483 c 0.956603,1.02484 2.675544,2.22293 4.643626,2.22293 3.006943,0 5.44468,-2.79999 5.44468,-3.49999 0,-0.7 -2.437737,-3.50001 -5.44468,-3.50001 z m 1.912526,4.025 c -0.28983,0 -0.524993,-0.23516 -0.524993,-0.52499 0,-0.29008 0.235163,-0.525 0.524993,-0.525 0.290075,0 0.525003,0.23492 0.525003,0.525 0,0.28983 -0.235163,0.52499 -0.525003,0.52499 z"
         id="path3"
         style="fill:#ffffff;fill-opacity:1;stroke:none;stroke-width:0.021875" /><path
         d="m 105.96222,145.12747 c -1.96808,0 -3.68681,1.19809 -4.6434,2.22317 l -1.910339,-1.44486 c -0.265344,-0.20086 -0.661504,0.0126 -0.593684,0.3207 l 0.528923,2.401 -0.529158,2.40121 c -0.06789,0.30757 0.328339,0.52128 0.593683,0.32068 l 1.910345,-1.44483 c 0.9566,1.02484 2.67555,2.22293 4.64363,2.22293 3.00694,0 5.44468,-2.79999 5.44468,-3.49999 0,-0.7 -2.43774,-3.50001 -5.44468,-3.50001 z m 1.91252,4.025 c -0.28983,0 -0.52499,-0.23516 -0.52499,-0.52499 0,-0.29008 0.23516,-0.525 0.52499,-0.525 0.29008,0 0.52501,0.23492 0.52501,0.525 0,0.28983 -0.23517,0.52499 -0.52501,0.52499 z"
         id="path4"
         style="fill:#ffffff;fill-opacity:1;stroke:none;stroke-width:0.021875" /><path
         d="m 121.20861,145.12747 c -1.96808,0 -3.68681,1.19809 -4.6434,2.22317 l -1.91034,-1.44486 c -0.26534,-0.20086 -0.6615,0.0126 -0.59368,0.3207 l 0.52892,2.401 -0.52915,2.40121 c -0.0679,0.30757 0.32833,0.52128 0.59368,0.32068 l 1.91034,-1.44483 c 0.95661,1.02484 2.67555,2.22293 4.64363,2.22293 3.00694,0 5.44468,-2.79999 5.44468,-3.49999 0,-0.7 -2.43774,-3.50001 -5.44468,-3.50001 z m 1.91252,4.025 c -0.28983,0 -0.52499,-0.23516 -0.52499,-0.52499 0,-0.29008 0.23516,-0.525 0.52499,-0.525 0.29008,0 0.52501,0.23492 0.52501,0.525 0,0.28983 -0.23517,0.52499 -0.52501,0.52499 z"
         id="path5"
         style="fill:#ffffff;fill-opacity:1;stroke:none;stroke-width:0.021875" /><path
         d="m 136.45501,145.12747 c -1.96808,0 -3.68681,1.19809 -4.6434,2.22317 l -1.91034,-1.44486 c -0.26534,-0.20086 -0.6615,0.0126 -0.59368,0.3207 l 0.52892,2.401 -0.52915,2.40121 c -0.0679,0.30757 0.32833,0.52128 0.59368,0.32068 l 1.91034,-1.44483 c 0.95661,1.02484 2.67555,2.22293 4.64363,2.22293 3.00694,0 5.44468,-2.79999 5.44468,-3.49999 0,-0.7 -2.43774,-3.50001 -5.44468,-3.50001 z m 1.91252,4.025 c -0.28983,0 -0.52499,-0.23516 -0.52499,-0.52499 0,-0.29008 0.23516,-0.525 0.52499,-0.525 0.29008,0 0.52501,0.23492 0.52501,0.525 0,0.28983 -0.23517,0.52499 -0.52501,0.52499 z"
         id="path6"
         style="fill:#ffffff;fill-opacity:1;stroke:none;stroke-width:0.021875" /></g><g
       id="g7"
       transform="translate(-3.3232729e-6,0.20859055)"><text
         xml:space="preserve"
         style="font-size:50.8px;line-height:normal;font-family:Mirza;-inkscape-font-specification:'Mirza, Normal';text-align:center;text-decoration-color:#000000;letter-spacing:0px;text-anchor:middle;display:inline;fill:#1e2492;fill-opacity:1;stroke:none;stroke-width:2.62885;stroke-linecap:round;stroke-linejoin:round;paint-order:stroke fill markers"
         x="118.0455"
         y="124.99273"
         id="text2"
         transform="scale(0.89827543,1.1132443)"><tspan
           sodipodi:role="line"
           id="tspan2"
           style="font-style:normal;font-variant:normal;font-weight:800;font-stretch:normal;font-size:50.8px;font-family:'Playfair Display';-inkscape-font-specification:'Playfair Display Ultra-Bold';fill:#ffffff;fill-opacity:1;stroke-width:2.62885"
           x="118.0455"
           y="124.99273">WILLIAM</tspan></text><text
         xml:space="preserve"
         style="font-size:50.8px;line-height:normal;font-family:Mirza;-inkscape-font-specification:'Mirza, Normal';text-align:center;text-decoration-color:#000000;letter-spacing:0px;text-anchor:middle;display:inline;fill:#1e2492;fill-opacity:1;stroke:none;stroke-width:2.62885;stroke-linecap:round;stroke-linejoin:round;paint-order:stroke fill markers"
         x="116.34372"
         y="170.14813"
         id="text2-0"
         transform="scale(0.89827543,1.1132443)"><tspan
           sodipodi:role="line"
           id="tspan2-3"
           style="font-style:normal;font-variant:normal;font-weight:800;font-stretch:normal;font-size:50.8px;font-family:'Playfair Display';-inkscape-font-specification:'Playfair Display Ultra-Bold';fill:#ffffff;fill-opacity:1;stroke-width:2.62885"
           x="116.34372"
           y="170.14813">757</tspan></text><path
         style="fill:none;fill-opacity:1;stroke:#fffefd;stroke-width:3;stroke-linecap:square;stroke-linejoin:miter;stroke-dasharray:none;stroke-opacity:1;paint-order:stroke fill markers"
         d="M 8.4382929,148.62747 199.61322,149.02925"
         id="path7" /></g></g></svg>
